<svg id="_x33_0" enable-background="new 0 0 64 64" height="512" viewBox="0 0 64 64" width="512" xmlns="http://www.w3.org/2000/svg"><g><path d="m37 47c0-1.103-.897-2-2-2h-2c-1.103 0-2 .897-2 2-1.103 0-2 .897-2 2v2c0 1.103.897 2 2 2 0 1.103.897 2 2 2h2c1.103 0 2-.897 2-2 1.103 0 2-.897 2-2v-2c0-1.103-.897-2-2-2zm0 4h-2v2h-2v-2h-2v-2h2v-2h2v2l2 .003z"/><path d="m41 41h-14c-1.103 0-2 .897-2 2v14c0 1.103.897 2 2 2h14c1.103 0 2-.897 2-2v-14c0-1.103-.897-2-2-2zm-14 16v-14h14l.001 14z"/><path d="m11 57h2v2h-2z"/><path d="m15 57h2v2h-2z"/><path d="m19 57h2v2h-2z"/><path d="m11 53h6v2h-6z"/><path d="m11 49h10v2h-10z"/><path d="m11 45h10v2h-10z"/><path d="m11 41h4v2h-4z"/><path d="m17 41h4v2h-4z"/><path d="m61 1h-22c-1.103 0-2 .897-2 2v2h-2v-2c0-1.103-.897-2-2-2h-2c-1.103 0-2 .897-2 2v2h-26c-1.103 0-2 .897-2 2v30c0 1.103.897 2 2 2h4v22c0 1.103.897 2 2 2h36c1.103 0 2-.897 2-2v-10h14c1.103 0 2-.897 2-2v-46c0-1.103-.897-2-2-2zm-30 2h2v2h-2zm-22 58v-22h24c1.103 0 2-.897 2-2v-18h-2v18h-30v-30h26v2h-24v26h26v-16h-2v11.572c-1.595-1.767-3.768-2.977-6.189-3.323l-1.004-.144-.213-.851c.986-.603 1.736-1.534 2.117-2.644l.592-.565c1.025-.976 1.804-2.202 2.251-3.544.296-.887.446-1.812.446-2.749v-.752c0-1.505-.497-2.997-1.4-4.2-.217-.289-.461-.551-.717-.8h4.117v4c0 1.103.897 2 2 2h2c1.103 0 2-.897 2-2v-6h-2v6h-2v-8h14v54zm15-48c.645.859 1 1.925 1 3v.752c0 .721-.115 1.433-.343 2.115-.167.5-.396.978-.675 1.424-.09-1.253-1.002-2.316-2.251-2.566-2.019-.404-3.758-1.569-4.899-3.281l-.555-.832-2.051 1.367c-1.394.93-2.226 2.485-2.226 4.162v1.12c-.27-.438-.494-.904-.657-1.393-.228-.683-.343-1.394-.343-2.116v-.752c0-1.075.355-2.141 1-3 .939-1.252 2.435-2 4-2h4c1.565 0 3.061.748 4 2zm-14.554 6.5c.447 1.343 1.226 2.569 2.25 3.544l.593.565c.381 1.11 1.131 2.041 2.117 2.644l-.213.851-1.004.144c-2.421.346-4.594 1.556-6.189 3.324v-19.572h4.117c-.256.249-.5.511-.717.8-.903 1.203-1.4 2.695-1.4 4.2v.752c0 .937.15 1.862.446 2.748zm4.027 9.728.991-.141c.777 1.189 2.089 1.913 3.536 1.913s2.759-.724 3.536-1.913l.991.141c2.417.345 4.53 1.753 5.82 3.772h-20.694c1.29-2.019 3.403-3.427 5.82-3.772zm6.461-1.368c-.396.701-1.121 1.14-1.934 1.14s-1.538-.439-1.934-1.141l.233-.93c.231.033.461.071.701.071h2c.24 0 .47-.038.702-.071zm-.934-2.86h-2c-1.654 0-3-1.346-3-3v-2.859c0-1.006.499-1.938 1.336-2.496l.429-.286c1.415 1.717 3.362 2.887 5.576 3.329.382.076.659.415.659.804v1.508c0 1.654-1.346 3-3 3zm28-16.586 4 4v18.586h-4zm14 40.586h-14v-2h4v-2h-4v-2h12v-2h-12v-2h12v-2h-12v-4h4c1.103 0 2-.897 2-2v-18.586c0-.534-.208-1.036-.586-1.414l-5.414-5.414c-.372-.373-.888-.586-1.414-.586h-6.586v-2h22z"/><path d="m53 45h6v2h-6z"/><path d="m55 33h4v2h-4z"/></g></svg>