<svg height="512" viewBox="0 0 60 60" width="512" xmlns="http://www.w3.org/2000/svg"><g id="Page-1" fill="none" fill-rule="evenodd"><g id="034---Online-Chat" fill="rgb(0,0,0)" fill-rule="nonzero"><path id="Shape" d="m56 0h-52c-2.209139 0-4 1.790861-4 4v42c0 2.209139 1.790861 4 4 4h21.79c.5522847 0 1-.4477153 1-1s-.4477153-1-1-1h-21.79c-1.1045695 0-2-.8954305-2-2v-36h15c.5522847 0 1-.44771525 1-1s-.4477153-1-1-1h-15v-4c0-1.1045695.8954305-2 2-2h52c1.1045695 0 2 .8954305 2 2v4h-34c-.5522847 0-1 .44771525-1 1s.4477153 1 1 1h34v36c0 1.1045695-.8954305 2-2 2h-3.03c-.5522847 0-1 .4477153-1 1s.4477153 1 1 1h3.03c2.209139 0 4-1.790861 4-4v-42c0-2.209139-1.790861-4-4-4z"/><circle id="Oval" cx="5" cy="5" r="1"/><circle id="Oval" cx="9" cy="5" r="1"/><circle id="Oval" cx="13" cy="5" r="1"/><path id="Shape" d="m39 30c-.7919506-.0057439-1.5524507.3095678-2.108.874-.1601439.1591424-.3017158.3359396-.422.527-.4466112-.2596555-.9534025-.3979026-1.47-.401-.7919506-.0057439-1.5524507.3095678-2.108.874-.1601439.1591424-.3017158.3359396-.422.527-.4466112-.2596555-.9534025-.3979026-1.47-.401-1.6534434.0082058-2.9917942 1.3465566-3 3v9c.0032382 2.4037339.6570208 4.7617746 1.892 6.824.7406831 1.2696272 1.1235782 2.7161966 1.108 4.186v2.99c0 1.1045695.8954305 2 2 2h11.03c1.1045695 0 2-.8954305 2-2v-3.43c.0008118-.2763979.0615401-.5493338.178-.8.1249868-.2933778.3187828-.5523443.565-.755 1.3404712-1.2340704 2.3877363-2.7525193 3.065-4.444.206-.424.41-.845.622-1.243l4.783-8.856c.8806739-1.602137.4230161-3.6098148-1.065-4.672-.8220285-.5556886-1.8408024-.7376107-2.8043522-.5007722-.9635497.2368385-1.7818988.8703216-2.2526478 1.7437722l-3.121 5.749v-14.792h2.5c3.0364236-.0027566 5.4972434-2.4635764 5.5-5.5-.0033068-3.0361953-2.4638047-5.4966932-5.5-5.5h-11c-3.0364236.0027566-5.4972434 2.4635764-5.5 5.5.0033068 3.0361953 2.4638047 5.4966932 5.5 5.5h2.5v4.184c-.320257-.1184378-.6585603-.1806856-1-.184zm8.761 11.74 3.122-5.751c.1970052-.3740045.5451965-.645346.956-.745.4209747-.1077335.8679689-.0282517 1.226.218.6307758.4896084.8073891 1.3675683.415 2.063l-4.78 8.855c-.225.424-.441.867-.658 1.314-.5584395 1.4212372-1.418552 2.7044119-2.521 3.761-.4942172.4011877-.884268.9157665-1.137 1.5-.2313104.5076901-.351004 1.0590988-.351 1.617v3.428h-11.033v-2.99c.0151261-1.8305213-.4659101-3.6309514-1.392-5.21-1.0500755-1.752588-1.6057564-3.7569096-1.608-5.8v-9c-.0008733-.2694422.1099083-.5272084.306-.712.1823963-.1865985.4330776-.2906276.694-.288.5522847 0 1 .4477153 1 1v5c0 .5522847.4477153 1 1 1s1-.4477153 1-1v-6c-.0008733-.2694422.1099083-.5272084.306-.712.1823963-.1865985.4330776-.2906276.694-.288.5522847 0 1 .4477153 1 1v6c0 .5522847.4477153 1 1 1s1-.4477153 1-1v-7c-.0008733-.2694422.1099083-.5272084.306-.712.1823963-.1865985.4330776-.2906276.694-.288.5522847 0 1 .4477153 1 1v7c0 .5522847.4477153 1 1 1s1-.4477153 1-1v-16.11c-.0008733-.2694422.1099083-.5272084.306-.712.2441133-.2509461.6058703-.3483864.943-.254.4634233.1495079.7704808.5894466.751 1.076v16.792c.0000423.9162558.6227023 1.7153014 1.5111685 1.9392488.8884662.2239473 1.815484-.1844856 2.2498315-.9912488zm-10.261-17.74c-1.9329966 0-3.5-1.5670034-3.5-3.5s1.5670034-3.5 3.5-3.5h11c1.9329966 0 3.5 1.5670034 3.5 3.5s-1.5670034 3.5-3.5 3.5h-2.5c.0260879-1.4046378-.906126-2.6471774-2.262-3.015-.8964765-.2246804-1.8464765-.0246338-2.5762189.5424882-.7297425.5671219-1.1581579 1.4383158-1.1617811 2.3625118v.11z"/><path id="Shape" d="m29 25v-8c0-2.209139-1.790861-4-4-4h-16c-2.209139 0-4 1.790861-4 4v8c0 2.209139 1.790861 4 4 4h7.765l6.577 5.753c.3124237.2727677.7607938.3243759 1.1270186.1297219.3662247-.194654.5742863-.5951656.5229814-1.0067219l-.609-4.876h.617c2.209139 0 4-1.790861 4-4zm-5.75 2c-.2867756.0000809-.5597155.1232772-.7494778.3382901-.1897622.2150129-.2780824.5011475-.2425222.7857099l.424 3.395-4.882-4.272c-.1827403-.1596913-.4173169-.2474798-.66-.247h-8.14c-1.1045695 0-2-.8954305-2-2v-8c0-1.1045695.8954305-2 2-2h16c1.1045695 0 2 .8954305 2 2v8c0 1.1045695-.8954305 2-2 2z"/><path id="Shape" d="m10 20h2c.5522847 0 1-.4477153 1-1s-.4477153-1-1-1h-2c-.55228475 0-1 .4477153-1 1s.44771525 1 1 1z"/><path id="Shape" d="m16 20h8c.5522847 0 1-.4477153 1-1s-.4477153-1-1-1h-8c-.5522847 0-1 .4477153-1 1s.4477153 1 1 1z"/><path id="Shape" d="m24 22h-2c-.5522847 0-1 .4477153-1 1s.4477153 1 1 1h2c.5522847 0 1-.4477153 1-1s-.4477153-1-1-1z"/><path id="Shape" d="m18 22h-8c-.55228475 0-1 .4477153-1 1s.44771525 1 1 1h8c.5522847 0 1-.4477153 1-1s-.4477153-1-1-1z"/><path id="Shape" d="m5 40c-.55228475 0-1 .4477153-1 1v4c0 .5522847.44771525 1 1 1h4c.55228475 0 1-.4477153 1-1s-.44771525-1-1-1h-3v-3c0-.5522847-.44771525-1-1-1z"/></g></g></svg>