<?xml version="1.0" encoding="iso-8859-1"?>
<!-- Generator: Adobe Illustrator 19.0.0, SVG Export Plug-In . SVG Version: 6.00 Build 0)  -->
<svg version="1.1" id="Capa_1" xmlns="http://www.w3.org/2000/svg" xmlns:xlink="http://www.w3.org/1999/xlink" x="0px" y="0px"
	 viewBox="0 0 512 512" style="enable-background:new 0 0 512 512;" xml:space="preserve">
<g>
	<g>
		<path d="M119.171,132.602H62.196c-4.142,0-7.5,3.358-7.5,7.5v56.976c0,4.142,3.358,7.5,7.5,7.5h56.975c4.142,0,7.5-3.358,7.5-7.5
			v-56.976C126.671,135.96,123.313,132.602,119.171,132.602z M111.671,189.579H69.696v-41.976h41.975V189.579z"/>
	</g>
</g>
<g>
	<g>
		<path d="M201.849,132.603h-42.231c-4.142,0-7.5,3.358-7.5,7.5c0,4.142,3.358,7.5,7.5,7.5h42.231c4.142,0,7.5-3.358,7.5-7.5
			C209.349,135.961,205.991,132.603,201.849,132.603z"/>
	</g>
</g>
<g>
	<g>
		<path d="M119.171,240.896H62.196c-4.142,0-7.5,3.358-7.5,7.5v56.976c0,4.142,3.358,7.5,7.5,7.5h56.975c4.142,0,7.5-3.358,7.5-7.5
			v-56.976C126.671,244.254,123.313,240.896,119.171,240.896z M111.671,297.872H69.696v-41.976h41.975V297.872z"/>
	</g>
</g>
<g>
	<g>
		<path d="M201.849,240.896h-42.231c-4.142,0-7.5,3.358-7.5,7.5c0,4.142,3.358,7.5,7.5,7.5h42.231c4.142,0,7.5-3.358,7.5-7.5
			C209.349,244.254,205.991,240.896,201.849,240.896z"/>
	</g>
</g>
<g>
	<g>
		<path d="M119.171,349.19H62.196c-4.142,0-7.5,3.358-7.5,7.5v56.976c0,4.142,3.358,7.5,7.5,7.5h56.975c4.142,0,7.5-3.358,7.5-7.5
			V356.69C126.671,352.548,123.313,349.19,119.171,349.19z M111.671,406.166H69.696V364.19h41.975V406.166z"/>
	</g>
</g>
<g>
	<g>
		<path d="M201.849,349.19h-42.231c-4.142,0-7.5,3.358-7.5,7.5c0,4.142,3.358,7.5,7.5,7.5h42.231c4.142,0,7.5-3.358,7.5-7.5
			C209.349,352.548,205.991,349.19,201.849,349.19z"/>
	</g>
</g>
<g>
	<g>
		<path d="M279.767,406.166H159.618c-4.142,0-7.5,3.358-7.5,7.5c0,4.142,3.358,7.5,7.5,7.5h120.149c4.142,0,7.5-3.358,7.5-7.5
			C287.267,409.524,283.909,406.166,279.767,406.166z"/>
	</g>
</g>
<g>
	<g>
		<path d="M452.6,145.873V12.54c0-4.142-3.358-7.5-7.5-7.5H7.5c-4.142,0-7.5,3.358-7.5,7.5V270c0,4.142,3.358,7.5,7.5,7.5
			s7.5-3.358,7.5-7.5V76.017h294.667c4.142,0,7.5-3.358,7.5-7.5c0-4.142-3.358-7.5-7.5-7.5H15V20.04h422.6v40.977h-96.267
			c-4.142,0-7.5,3.358-7.5,7.5c0,4.142,3.358,7.5,7.5,7.5H437.6v60.029c-21.493-12.287-46.361-19.317-72.842-19.317
			c-41.19,0-78.477,17.008-105.226,44.362h-99.915c-4.142,0-7.5,3.358-7.5,7.5c0,4.142,3.358,7.5,7.5,7.5h87.071
			c-3.223,4.319-6.208,8.824-8.95,13.488h-78.121c-4.142,0-7.5,3.358-7.5,7.5c0,4.142,3.358,7.5,7.5,7.5h70.423
			c-8.045,18.177-12.524,38.27-12.524,59.392c0,1.813,0.045,3.616,0.11,5.414h-58.009c-4.142,0-7.5,3.358-7.5,7.5
			c0,4.142,3.358,7.5,7.5,7.5h59.321c0.636,4.565,1.478,9.065,2.524,13.488h-61.845c-4.142,0-7.5,3.358-7.5,7.5
			c0,4.142,3.358,7.5,7.5,7.5h66.258c9.025,25.557,24.909,47.904,45.44,64.806H159.618c-4.142,0-7.5,3.358-7.5,7.5
			c0,4.142,3.358,7.5,7.5,7.5h120.149c2.909,0,5.426-1.659,6.67-4.081c22.7,14.317,49.558,22.615,78.322,22.615
			c26.481,0,51.348-7.031,72.842-19.317V491.96H15V302.74c0-4.142-3.358-7.5-7.5-7.5s-7.5,3.358-7.5,7.5v196.72
			c0,4.142,3.358,7.5,7.5,7.5h437.6c4.142,0,7.5-3.358,7.5-7.5V382.068c36.027-26.867,59.4-69.803,59.4-118.098
			C512,215.675,488.627,172.739,452.6,145.873z M364.758,396.212c-72.918,0-132.242-59.323-132.242-132.242
			s59.323-132.242,132.242-132.242S497,191.052,497,263.97C497,336.888,437.677,396.212,364.758,396.212z"/>
	</g>
</g>
<g>
	<g>
		<path d="M453.829,212.796c-2.066-3.59-6.652-4.826-10.242-2.758c-3.59,2.066-4.825,6.652-2.758,10.242
			c7.613,13.226,11.638,28.334,11.638,43.691c0,48.363-39.346,87.708-87.708,87.708s-87.708-39.346-87.708-87.708
			s39.346-87.708,87.708-87.708c21.194,0,41.653,7.66,57.607,21.569c3.122,2.722,7.859,2.397,10.582-0.725
			c2.722-3.123,2.397-7.86-0.725-10.582c-18.687-16.291-42.646-25.263-67.465-25.263c-56.634,0-102.708,46.075-102.708,102.708
			c0,56.633,46.075,102.708,102.708,102.708s102.708-46.075,102.708-102.708C467.467,245.991,462.751,228.295,453.829,212.796z"/>
	</g>
</g>
<g>
	<g>
		<path d="M371.472,258.006h-12.3c-4.751,0-8.617-3.865-8.617-8.617s3.865-8.617,8.617-8.617h19.934
			c0.542,0,0.982,0.441,0.982,0.982c0,4.142,3.358,7.5,7.5,7.5c4.142,0,7.5-3.358,7.5-7.5c0-8.813-7.17-15.982-15.982-15.982h-6.284
			v-11.725c0-4.142-3.358-7.5-7.5-7.5c-4.142,0-7.5,3.358-7.5,7.5v11.766c-12.396,0.702-22.267,11.006-22.267,23.576
			c0,13.022,10.594,23.617,23.617,23.617h12.3c4.751,0,8.617,3.865,8.617,8.617s-3.865,8.617-8.617,8.617h-19.934
			c-0.542,0-0.983-0.441-0.983-0.982c0-4.142-3.358-7.5-7.5-7.5c-4.142,0-7.5,3.358-7.5,7.5c0,8.813,7.17,15.982,15.983,15.982
			h6.284v11.725c0,4.142,3.358,7.5,7.5,7.5c4.142,0,7.5-3.358,7.5-7.5v-11.766c12.396-0.702,22.267-11.006,22.267-23.576
			C395.089,268.601,384.495,258.006,371.472,258.006z"/>
	</g>
</g>
<g>
	<g>
		<path d="M190.541,33.027h-9.458c-4.142,0-7.5,3.358-7.5,7.5c0,4.142,3.358,7.5,7.5,7.5h9.458c4.142,0,7.5-3.358,7.5-7.5
			C198.041,36.385,194.683,33.027,190.541,33.027z"/>
	</g>
</g>
<g>
	<g>
		<path d="M231.03,33.027h-9.459c-4.142,0-7.5,3.358-7.5,7.5c0,4.142,3.358,7.5,7.5,7.5h9.459c4.142,0,7.5-3.358,7.5-7.5
			C238.53,36.385,235.172,33.027,231.03,33.027z"/>
	</g>
</g>
<g>
	<g>
		<path d="M271.518,33.027h-9.459c-4.142,0-7.5,3.358-7.5,7.5c0,4.142,3.358,7.5,7.5,7.5h9.459c4.142,0,7.5-3.358,7.5-7.5
			C279.018,36.385,275.66,33.027,271.518,33.027z"/>
	</g>
</g>
<g>
</g>
<g>
</g>
<g>
</g>
<g>
</g>
<g>
</g>
<g>
</g>
<g>
</g>
<g>
</g>
<g>
</g>
<g>
</g>
<g>
</g>
<g>
</g>
<g>
</g>
<g>
</g>
<g>
</g>
</svg>
